<?xml version="1.0" encoding="UTF-8"?><svg id="b" xmlns="http://www.w3.org/2000/svg" width="147.11" height="21.36" xmlns:xlink="http://www.w3.org/1999/xlink" viewBox="0 0 147.11 21.36"><defs><clipPath id="d"><path d="m34.73,6.5v8.84h1.32v-7.52h2.94c1.71,0,3.1,1.39,3.1,3.1s-1.39,3.1-3.1,3.1h-1.39l-.98,1.32h2.37c2.44,0,4.42-1.98,4.42-4.42s-1.98-4.42-4.42-4.42h-4.27Z" fill="#092c29"/></clipPath><clipPath id="e"><path d="m47,14.02v1.32h8.45l-.98-1.32h-7.46Zm0-2.44h8.05v-1.32h-8.05v1.32Zm0-5.08v1.32h7.46l.98-1.32h-8.45Z" fill="#092c29"/></clipPath><clipPath id="f"><path d="m59.04,14.02v1.32h8.45l-.98-1.32h-7.46Zm0-2.44h8.05v-1.32h-8.05v1.32Zm0-5.08v1.32h7.46l.98-1.32h-8.45Z" fill="#092c29"/></clipPath><clipPath id="g"><path d="m126.5,14.02v1.32h8.45l-.98-1.32h-7.46Zm0-2.44h8.05v-1.32h-8.05v1.32Zm0-5.08v1.32h7.46l.98-1.32h-8.45Z" fill="#5abb5b"/></clipPath><clipPath id="h"><path d="m71.08,6.5v8.84h1.32v-7.52h4.34c.87,0,1.58.71,1.58,1.57s-.71,1.58-1.58,1.58h-2.7l-.98,1.32h3.68c1.6,0,2.9-1.3,2.9-2.9s-1.3-2.9-2.9-2.9h-5.66Z" fill="#092c29"/></clipPath><clipPath id="i"><path d="m84.89,7.83h4.34c.87,0,1.58.71,1.58,1.57s-.71,1.58-1.58,1.58h-3.43l-.91,1.22v-4.37Zm-1.32-1.32v8.84h1.32v-3.04h4.34c1.6,0,2.9-1.3,2.9-2.9s-1.3-2.9-2.9-2.9h-5.66Z" fill="#5abb5b"/></clipPath><clipPath id="j"><path d="m96.49,10.92c0-1.71,1.39-3.1,3.1-3.1h.35c1.71,0,3.1,1.39,3.1,3.1s-1.39,3.1-3.1,3.1h-.35c-1.71,0-3.1-1.39-3.1-3.1m3.1-4.42c-2.44,0-4.42,1.98-4.42,4.42s1.98,4.42,4.42,4.42h.35c2.44,0,4.42-1.98,4.42-4.42s-1.98-4.42-4.42-4.42h-.35Z" fill="#5abb5b"/></clipPath><clipPath id="k"><polygon points="121.85 6.5 118.45 14.02 118.33 14.02 114.93 6.5 111.53 14.02 111.41 14.02 108.02 6.5 106.57 6.5 110.56 15.34 112.39 15.34 114.93 9.71 117.48 15.34 119.3 15.34 123.3 6.5 121.85 6.5" fill="#5abb5b"/></clipPath><clipPath id="l"><path d="m138.55,6.5v8.84h1.32v-7.52h4.34c.87,0,1.58.71,1.58,1.57s-.71,1.58-1.58,1.58h-2.7l-1.2,1.61,4.31,2.76h2.48l-4.83-3.04h1.93c1.6,0,2.9-1.3,2.9-2.9s-1.3-2.9-2.9-2.9h-5.66Z" fill="#5abb5b"/></clipPath></defs><g id="c"><path d="m34.73,6.5v8.84h1.32v-7.52h2.94c1.71,0,3.1,1.39,3.1,3.1s-1.39,3.1-3.1,3.1h-1.39l-.98,1.32h2.37c2.44,0,4.42-1.98,4.42-4.42s-1.98-4.42-4.42-4.42h-4.27Z" fill="#092c29"/><g clip-path="url(#d)" fill="none"><rect x="32.88" y="4.74" width="12.38" height="12.37" transform="translate(4.69 32.46) rotate(-47.68)" fill="#092c29"/></g><path d="m47,14.02v1.32h8.45l-.98-1.32h-7.46Zm0-2.44h8.05v-1.32h-8.05v1.32Zm0-5.08v1.32h7.46l.98-1.32h-8.45Z" fill="#092c29"/><g clip-path="url(#e)" fill="none"><rect x="45.11" y="4.83" width="12.22" height="12.19" transform="translate(8.66 41.44) rotate(-47.68)" fill="#092c29"/></g><path d="m59.04,14.02v1.32h8.45l-.98-1.32h-7.46Zm0-2.44h8.05v-1.32h-8.05v1.32Zm0-5.08v1.32h7.46l.98-1.32h-8.45Z" fill="#092c29"/><g clip-path="url(#f)" fill="none"><rect x="57.15" y="4.83" width="12.22" height="12.19" transform="translate(12.6 50.35) rotate(-47.68)" fill="#092c29"/></g><path d="m126.5,14.02v1.32h8.45l-.98-1.32h-7.46Zm0-2.44h8.05v-1.32h-8.05v1.32Zm0-5.08v1.32h7.46l.98-1.32h-8.45Z" fill="#5abb5b"/><g clip-path="url(#g)" fill="none"><rect x="124.61" y="4.83" width="12.22" height="12.19" transform="translate(34.64 100.23) rotate(-47.68)" fill="#5abb5b"/></g><path d="m71.08,6.5v8.84h1.32v-7.52h4.34c.87,0,1.58.71,1.58,1.57s-.71,1.58-1.58,1.58h-2.7l-.98,1.32h3.68c1.6,0,2.9-1.3,2.9-2.9s-1.3-2.9-2.9-2.9h-5.66Z" fill="#092c29"/><g clip-path="url(#h)" fill="none"><rect x="69.21" y="4.78" width="12.3" height="12.28" transform="translate(16.55 59.29) rotate(-47.68)" fill="#092c29"/></g><path d="m84.89,7.83h4.34c.87,0,1.58.71,1.58,1.57s-.71,1.58-1.58,1.58h-3.43l-.91,1.22v-4.37Zm-1.32-1.32v8.84h1.32v-3.04h4.34c1.6,0,2.9-1.3,2.9-2.9s-1.3-2.9-2.9-2.9h-5.66Z" fill="#5abb5b"/><g clip-path="url(#i)" fill="none"><rect x="81.7" y="4.78" width="12.3" height="12.28" transform="translate(20.63 68.52) rotate(-47.68)" fill="#5abb5b"/></g><path d="m96.49,10.92c0-1.71,1.39-3.1,3.1-3.1h.35c1.71,0,3.1,1.39,3.1,3.1s-1.39,3.1-3.1,3.1h-.35c-1.71,0-3.1-1.39-3.1-3.1m3.1-4.42c-2.44,0-4.42,1.98-4.42,4.42s1.98,4.42,4.42,4.42h.35c2.44,0,4.42-1.98,4.42-4.42s-1.98-4.42-4.42-4.42h-.35Z" fill="#5abb5b"/><g clip-path="url(#j)" fill="none"><rect x="93.4" y="4.55" width="12.72" height="12.74" transform="translate(24.52 77.34) rotate(-47.68)" fill="#5abb5b"/></g><polygon points="121.85 6.5 118.45 14.02 118.33 14.02 114.93 6.5 111.53 14.02 111.41 14.02 108.02 6.5 106.57 6.5 110.56 15.34 112.39 15.34 114.93 9.71 117.48 15.34 119.3 15.34 123.3 6.5 121.85 6.5" fill="#5abb5b"/><g clip-path="url(#k)" fill="none"><rect x="106.03" y="1.76" width="17.8" height="18.32" transform="translate(29.48 88.55) rotate(-47.68)" fill="#5abb5b"/></g><path d="m138.55,6.5v8.84h1.32v-7.52h4.34c.87,0,1.58.71,1.58,1.57s-.71,1.58-1.58,1.58h-2.7l-1.2,1.61,4.31,2.76h2.48l-4.83-3.04h1.93c1.6,0,2.9-1.3,2.9-2.9s-1.3-2.9-2.9-2.9h-5.66Z" fill="#5abb5b"/><g clip-path="url(#l)" fill="none"><rect x="136.68" y="4.78" width="12.3" height="12.28" transform="translate(38.6 109.19) rotate(-47.68)" fill="#5abb5b"/></g><polygon points="5.75 13.13 12.55 0 4.52 0 0 21.36 6.97 21.36 10.36 13.18 5.75 13.13" fill="#092c29"/><path d="m13.59,0h-.26l-2.29,10.14h5.52l-8.38,11.22h2.11c10.74,0,13.03-7.52,13.03-12.38C23.3,3.84,20.15,0,13.59,0Z" fill="#5abb5b"/><polygon points="11.03 10.14 13.32 0 12.55 0 5.75 13.13 10.36 13.18 6.97 21.36 8.17 21.36 16.55 10.14 11.03 10.14" fill="#010101"/><polygon points="11.03 10.14 13.32 0 12.55 0 5.75 13.13 10.36 13.18 6.97 21.36 8.17 21.36 16.55 10.14 11.03 10.14" fill="#fff"/></g></svg>