<?xml version="1.0" encoding="UTF-8"?><svg id="b" xmlns="http://www.w3.org/2000/svg" width="146.98" height="21.34" xmlns:xlink="http://www.w3.org/1999/xlink" viewBox="0 0 146.98 21.34"><defs><clipPath id="d"><path d="m34.7,6.5v8.83h1.32v-7.51h2.94c1.71,0,3.09,1.39,3.09,3.09s-1.39,3.09-3.09,3.09h-1.39l-.98,1.32h2.37c2.43,0,4.41-1.98,4.41-4.41s-1.98-4.41-4.41-4.41h-4.26Z" fill="#fff"/></clipPath><clipPath id="e"><path d="m46.95,14.01v1.32h8.44l-.98-1.32h-7.46Zm0-2.43h8.04v-1.32h-8.04v1.32Zm0-5.08v1.32h7.46l.98-1.32h-8.44Z" fill="#fff"/></clipPath><clipPath id="f"><path d="m58.99,14.01v1.32h8.44l-.98-1.32h-7.45Zm0-2.43h8.04v-1.32h-8.04v1.32Zm0-5.08v1.32h7.45l.98-1.32h-8.44Z" fill="#fff"/></clipPath><clipPath id="g"><path d="m126.39,14.01v1.32h8.44l-.98-1.32h-7.45Zm0-2.43h8.04v-1.32h-8.04v1.32Zm0-5.08v1.32h7.45l.98-1.32h-8.44Z" fill="#5abb5b"/></clipPath><clipPath id="h"><path d="m71.02,6.5v8.83h1.32v-7.51h4.34c.87,0,1.57.71,1.57,1.57s-.71,1.57-1.57,1.57h-2.69l-.98,1.32h3.68c1.6,0,2.89-1.3,2.89-2.89s-1.3-2.89-2.89-2.89h-5.66Z" fill="#fff"/></clipPath><clipPath id="i"><path d="m84.81,7.82h4.34c.87,0,1.57.71,1.57,1.57s-.71,1.57-1.57,1.57h-3.43l-.9,1.22v-4.36Zm-1.32-1.32v8.83h1.32v-3.04h4.34c1.6,0,2.89-1.3,2.89-2.89s-1.3-2.89-2.89-2.89h-5.66Z" fill="#5abb5b"/></clipPath><clipPath id="j"><path d="m96.4,10.91c0-1.71,1.39-3.09,3.09-3.09h.35c1.71,0,3.09,1.39,3.09,3.09s-1.39,3.09-3.09,3.09h-.35c-1.71,0-3.09-1.39-3.09-3.09m3.09-4.41c-2.43,0-4.41,1.98-4.41,4.41s1.98,4.42,4.41,4.42h.35c2.43,0,4.41-1.98,4.41-4.42s-1.98-4.41-4.41-4.41h-.35Z" fill="#5abb5b"/></clipPath><clipPath id="k"><polygon points="121.74 6.5 118.35 14.01 118.22 14.01 114.83 6.5 111.44 14.01 111.32 14.01 107.92 6.5 106.47 6.5 110.46 15.33 112.29 15.33 114.83 9.7 117.37 15.33 119.2 15.33 123.19 6.5 121.74 6.5" fill="#5abb5b"/></clipPath><clipPath id="l"><path d="m138.43,6.5v8.83h1.32v-7.51h4.34c.87,0,1.57.71,1.57,1.57s-.71,1.57-1.57,1.57h-2.69l-1.19,1.6,4.31,2.76h2.48l-4.83-3.04h1.93c1.6,0,2.89-1.3,2.89-2.89s-1.3-2.89-2.89-2.89h-5.66Z" fill="#5abb5b"/></clipPath></defs><g id="c"><path d="m34.7,6.5v8.83h1.32v-7.51h2.94c1.71,0,3.09,1.39,3.09,3.09s-1.39,3.09-3.09,3.09h-1.39l-.98,1.32h2.37c2.43,0,4.41-1.98,4.41-4.41s-1.98-4.41-4.41-4.41h-4.26Z" fill="#fff"/><g clip-path="url(#d)" fill="none"><rect x="32.85" y="4.73" width="12.37" height="12.36" transform="translate(4.69 32.43) rotate(-47.68)" fill="#fff"/></g><path d="m46.95,14.01v1.32h8.44l-.98-1.32h-7.46Zm0-2.43h8.04v-1.32h-8.04v1.32Zm0-5.08v1.32h7.46l.98-1.32h-8.44Z" fill="#fff"/><g clip-path="url(#e)" fill="none"><rect x="45.07" y="4.82" width="12.21" height="12.18" transform="translate(8.65 41.41) rotate(-47.68)" fill="#fff"/></g><path d="m58.99,14.01v1.32h8.44l-.98-1.32h-7.45Zm0-2.43h8.04v-1.32h-8.04v1.32Zm0-5.08v1.32h7.45l.98-1.32h-8.44Z" fill="#fff"/><g clip-path="url(#f)" fill="none"><rect x="57.1" y="4.82" width="12.21" height="12.18" transform="translate(12.58 50.3) rotate(-47.68)" fill="#fff"/></g><path d="m126.39,14.01v1.32h8.44l-.98-1.32h-7.45Zm0-2.43h8.04v-1.32h-8.04v1.32Zm0-5.08v1.32h7.45l.98-1.32h-8.44Z" fill="#5abb5b"/><g clip-path="url(#g)" fill="none"><rect x="124.5" y="4.82" width="12.21" height="12.18" transform="translate(34.61 100.14) rotate(-47.68)" fill="#5abb5b"/></g><path d="m71.02,6.5v8.83h1.32v-7.51h4.34c.87,0,1.57.71,1.57,1.57s-.71,1.57-1.57,1.57h-2.69l-.98,1.32h3.68c1.6,0,2.89-1.3,2.89-2.89s-1.3-2.89-2.89-2.89h-5.66Z" fill="#fff"/><g clip-path="url(#h)" fill="none"><rect x="69.15" y="4.78" width="12.29" height="12.27" transform="translate(16.54 59.24) rotate(-47.68)" fill="#fff"/></g><path d="m84.81,7.82h4.34c.87,0,1.57.71,1.57,1.57s-.71,1.57-1.57,1.57h-3.43l-.9,1.22v-4.36Zm-1.32-1.32v8.83h1.32v-3.04h4.34c1.6,0,2.89-1.3,2.89-2.89s-1.3-2.89-2.89-2.89h-5.66Z" fill="#5abb5b"/><g clip-path="url(#i)" fill="none"><rect x="81.62" y="4.78" width="12.29" height="12.27" transform="translate(20.61 68.46) rotate(-47.68)" fill="#5abb5b"/></g><path d="m96.4,10.91c0-1.71,1.39-3.09,3.09-3.09h.35c1.71,0,3.09,1.39,3.09,3.09s-1.39,3.09-3.09,3.09h-.35c-1.71,0-3.09-1.39-3.09-3.09m3.09-4.41c-2.43,0-4.41,1.98-4.41,4.41s1.98,4.42,4.41,4.42h.35c2.43,0,4.41-1.98,4.41-4.42s-1.98-4.41-4.41-4.41h-.35Z" fill="#5abb5b"/><g clip-path="url(#j)" fill="none"><rect x="93.32" y="4.55" width="12.71" height="12.73" transform="translate(24.5 77.27) rotate(-47.68)" fill="#5abb5b"/></g><polygon points="121.74 6.5 118.35 14.01 118.22 14.01 114.83 6.5 111.44 14.01 111.32 14.01 107.92 6.5 106.47 6.5 110.46 15.33 112.29 15.33 114.83 9.7 117.37 15.33 119.2 15.33 123.19 6.5 121.74 6.5" fill="#5abb5b"/><g clip-path="url(#k)" fill="none"><rect x="105.94" y="1.76" width="17.78" height="18.31" transform="translate(29.45 88.48) rotate(-47.68)" fill="#5abb5b"/></g><path d="m138.43,6.5v8.83h1.32v-7.51h4.34c.87,0,1.57.71,1.57,1.57s-.71,1.57-1.57,1.57h-2.69l-1.19,1.6,4.31,2.76h2.48l-4.83-3.04h1.93c1.6,0,2.89-1.3,2.89-2.89s-1.3-2.89-2.89-2.89h-5.66Z" fill="#5abb5b"/><g clip-path="url(#l)" fill="none"><rect x="136.56" y="4.78" width="12.29" height="12.27" transform="translate(38.56 109.09) rotate(-47.68)" fill="#5abb5b"/></g><polygon points="5.75 13.12 12.54 0 4.51 0 0 21.34 6.97 21.34 10.35 13.17 5.75 13.12" fill="#5abb5a"/><path d="m13.57,0h-.26l-2.29,10.13h5.51l-8.37,11.21h2.1c10.73,0,13.02-7.51,13.02-12.37C23.28,3.83,20.13,0,13.57,0Z" fill="#fff"/><polygon points="11.02 10.13 13.31 0 12.54 0 5.75 13.12 10.35 13.17 6.97 21.34 8.16 21.34 16.53 10.13 11.02 10.13" fill="#010101"/><polygon points="11.02 10.13 13.31 0 12.54 0 5.75 13.12 10.35 13.17 6.97 21.34 8.16 21.34 16.53 10.13 11.02 10.13" fill="#fff" opacity="0"/></g></svg>