<svg width="579" height="580" viewBox="0 0 579 580" fill="none" xmlns="http://www.w3.org/2000/svg">
<rect x="0.572131" y="289.723" width="407.794" height="408.603" rx="23.8689" transform="rotate(-45 0.572131 289.723)" fill="white" fill-opacity="0.05" stroke="#ACACAC" stroke-width="0.809116"/>
<rect x="68.0828" y="289.723" width="312.319" height="313.128" rx="23.8689" transform="rotate(-45 68.0828 289.723)" fill="white" fill-opacity="0.1" stroke="#ACACAC" stroke-width="0.809116"/>
<rect x="139.026" y="289.725" width="211.988" height="212.797" rx="23.8689" transform="rotate(-45 139.026 289.725)" fill="white" fill-opacity="0.2" stroke="#ACACAC" stroke-width="0.809116"/>
<rect x="192.806" y="289.725" width="135.931" height="136.741" rx="23.8689" transform="rotate(-45 192.806 289.725)" fill="white" stroke="#ACACAC" stroke-width="0.809116"/>
<path d="M239.442 296L236.284 285.2H238.182L240.334 293L242.479 285.215L244.377 285.2L246.529 293L248.674 285.2H250.572L247.422 296H245.637L243.424 288.32L241.227 296H239.442ZM253.387 296.225C252.802 296.225 252.307 296.115 251.902 295.895C251.497 295.67 251.189 295.372 250.979 295.002C250.774 294.632 250.672 294.225 250.672 293.78C250.672 293.39 250.737 293.04 250.867 292.73C250.997 292.415 251.197 292.145 251.467 291.92C251.737 291.69 252.087 291.502 252.517 291.357C252.842 291.252 253.222 291.157 253.657 291.072C254.097 290.987 254.572 290.91 255.082 290.84C255.597 290.765 256.134 290.685 256.694 290.6L256.049 290.967C256.054 290.407 255.929 289.995 255.674 289.73C255.419 289.465 254.989 289.332 254.384 289.332C254.019 289.332 253.667 289.417 253.327 289.587C252.987 289.757 252.749 290.05 252.614 290.465L250.964 289.947C251.164 289.262 251.544 288.712 252.104 288.297C252.669 287.882 253.429 287.675 254.384 287.675C255.104 287.675 255.737 287.792 256.282 288.027C256.832 288.262 257.239 288.647 257.504 289.182C257.649 289.467 257.737 289.76 257.767 290.06C257.797 290.355 257.812 290.677 257.812 291.027V296H256.229V294.245L256.492 294.53C256.127 295.115 255.699 295.545 255.209 295.82C254.724 296.09 254.117 296.225 253.387 296.225ZM253.747 294.785C254.157 294.785 254.507 294.712 254.797 294.567C255.087 294.422 255.317 294.245 255.487 294.035C255.662 293.825 255.779 293.627 255.839 293.442C255.934 293.212 255.987 292.95 255.997 292.655C256.012 292.355 256.019 292.112 256.019 291.927L256.574 292.092C256.029 292.177 255.562 292.252 255.172 292.317C254.782 292.382 254.447 292.445 254.167 292.505C253.887 292.56 253.639 292.622 253.424 292.692C253.214 292.767 253.037 292.855 252.892 292.955C252.747 293.055 252.634 293.17 252.554 293.3C252.479 293.43 252.442 293.582 252.442 293.757C252.442 293.957 252.492 294.135 252.592 294.29C252.692 294.44 252.837 294.56 253.027 294.65C253.222 294.74 253.462 294.785 253.747 294.785ZM264.512 296C263.977 296.1 263.452 296.142 262.937 296.127C262.427 296.117 261.969 296.025 261.564 295.85C261.159 295.67 260.852 295.387 260.642 295.002C260.457 294.652 260.359 294.295 260.349 293.93C260.339 293.565 260.334 293.152 260.334 292.692V285.65H262.134V292.587C262.134 292.912 262.137 293.197 262.142 293.442C262.152 293.687 262.204 293.887 262.299 294.042C262.479 294.342 262.767 294.51 263.162 294.545C263.557 294.58 264.007 294.56 264.512 294.485V296ZM258.864 289.317V287.9H264.512V289.317H258.864ZM269.361 296.225C268.526 296.225 267.813 296.04 267.223 295.67C266.633 295.295 266.181 294.785 265.866 294.14C265.556 293.495 265.398 292.765 265.393 291.95C265.398 291.12 265.561 290.385 265.881 289.745C266.206 289.1 266.666 288.595 267.261 288.23C267.856 287.86 268.563 287.675 269.383 287.675C270.303 287.675 271.081 287.907 271.716 288.372C272.356 288.832 272.773 289.462 272.968 290.262L271.168 290.75C271.028 290.315 270.796 289.977 270.471 289.737C270.146 289.492 269.776 289.37 269.361 289.37C268.891 289.37 268.503 289.482 268.198 289.707C267.893 289.927 267.668 290.232 267.523 290.622C267.378 291.012 267.306 291.455 267.306 291.95C267.306 292.72 267.478 293.342 267.823 293.817C268.168 294.292 268.681 294.53 269.361 294.53C269.841 294.53 270.218 294.42 270.493 294.2C270.773 293.98 270.983 293.662 271.123 293.247L272.968 293.66C272.718 294.485 272.281 295.12 271.656 295.565C271.031 296.005 270.266 296.225 269.361 296.225ZM280.074 296V292.1C280.074 291.845 280.056 291.562 280.021 291.252C279.986 290.942 279.904 290.645 279.774 290.36C279.649 290.07 279.459 289.832 279.204 289.647C278.954 289.462 278.614 289.37 278.184 289.37C277.954 289.37 277.726 289.407 277.501 289.482C277.276 289.557 277.071 289.687 276.886 289.872C276.706 290.052 276.561 290.302 276.451 290.622C276.341 290.937 276.286 291.342 276.286 291.837L275.214 291.38C275.214 290.69 275.346 290.065 275.611 289.505C275.881 288.945 276.276 288.5 276.796 288.17C277.316 287.835 277.956 287.667 278.716 287.667C279.316 287.667 279.811 287.767 280.201 287.967C280.591 288.167 280.901 288.422 281.131 288.732C281.361 289.042 281.531 289.372 281.641 289.722C281.751 290.072 281.821 290.405 281.851 290.72C281.886 291.03 281.904 291.282 281.904 291.477V296H280.074ZM274.456 296V285.2H276.069V290.885H276.286V296H274.456ZM289.294 296L285.889 285.2H287.749L290.599 294.245L293.486 285.2H295.346L291.941 296H289.294ZM296.33 286.67V285.012H298.138V286.67H296.33ZM296.33 296V287.9H298.138V296H296.33ZM303.632 296.225C302.887 296.225 302.237 296.037 301.682 295.662C301.127 295.287 300.697 294.777 300.392 294.132C300.087 293.487 299.934 292.76 299.934 291.95C299.934 291.13 300.087 290.4 300.392 289.76C300.702 289.115 301.139 288.607 301.704 288.237C302.269 287.862 302.934 287.675 303.699 287.675C304.469 287.675 305.114 287.862 305.634 288.237C306.159 288.607 306.557 289.115 306.827 289.76C307.097 290.405 307.232 291.135 307.232 291.95C307.232 292.755 307.097 293.482 306.827 294.132C306.557 294.777 306.154 295.287 305.619 295.662C305.084 296.037 304.422 296.225 303.632 296.225ZM303.909 294.605C304.394 294.605 304.784 294.495 305.079 294.275C305.379 294.05 305.597 293.737 305.732 293.337C305.872 292.937 305.942 292.475 305.942 291.95C305.942 291.42 305.872 290.957 305.732 290.562C305.597 290.162 305.384 289.852 305.094 289.632C304.804 289.407 304.429 289.295 303.969 289.295C303.484 289.295 303.084 289.415 302.769 289.655C302.454 289.89 302.222 290.21 302.072 290.615C301.922 291.015 301.847 291.46 301.847 291.95C301.847 292.445 301.919 292.895 302.064 293.3C302.214 293.7 302.442 294.017 302.747 294.252C303.052 294.487 303.439 294.605 303.909 294.605ZM305.942 296V290.315H305.717V285.2H307.539V296H305.942ZM313.325 296.225C312.505 296.225 311.785 296.047 311.165 295.692C310.545 295.337 310.06 294.845 309.71 294.215C309.365 293.585 309.192 292.86 309.192 292.04C309.192 291.155 309.362 290.387 309.702 289.737C310.042 289.082 310.515 288.575 311.12 288.215C311.725 287.855 312.425 287.675 313.22 287.675C314.06 287.675 314.772 287.872 315.357 288.267C315.947 288.657 316.385 289.21 316.67 289.925C316.955 290.64 317.062 291.482 316.992 292.452H315.2V291.792C315.195 290.912 315.04 290.27 314.735 289.865C314.43 289.46 313.95 289.257 313.295 289.257C312.555 289.257 312.005 289.487 311.645 289.947C311.285 290.402 311.105 291.07 311.105 291.95C311.105 292.77 311.285 293.405 311.645 293.855C312.005 294.305 312.53 294.53 313.22 294.53C313.665 294.53 314.047 294.432 314.367 294.237C314.692 294.037 314.942 293.75 315.117 293.375L316.902 293.915C316.592 294.645 316.112 295.212 315.462 295.617C314.817 296.022 314.105 296.225 313.325 296.225ZM310.535 292.452V291.087H316.107V292.452H310.535ZM322.243 296.225C321.433 296.225 320.726 296.042 320.121 295.677C319.516 295.312 319.046 294.81 318.711 294.17C318.381 293.525 318.216 292.785 318.216 291.95C318.216 291.1 318.386 290.355 318.726 289.715C319.066 289.075 319.538 288.575 320.143 288.215C320.748 287.855 321.448 287.675 322.243 287.675C323.058 287.675 323.768 287.857 324.373 288.222C324.978 288.587 325.448 289.092 325.783 289.737C326.118 290.377 326.286 291.115 326.286 291.95C326.286 292.79 326.116 293.532 325.776 294.177C325.441 294.817 324.971 295.32 324.366 295.685C323.761 296.045 323.053 296.225 322.243 296.225ZM322.243 294.53C322.963 294.53 323.498 294.29 323.848 293.81C324.198 293.33 324.373 292.71 324.373 291.95C324.373 291.165 324.196 290.54 323.841 290.075C323.486 289.605 322.953 289.37 322.243 289.37C321.758 289.37 321.358 289.48 321.043 289.7C320.733 289.915 320.503 290.217 320.353 290.607C320.203 290.992 320.128 291.44 320.128 291.95C320.128 292.735 320.306 293.362 320.661 293.832C321.021 294.297 321.548 294.53 322.243 294.53Z" fill="#091113"/>
<path d="M342 290.5L335.25 294.397L335.25 286.603L342 290.5Z" fill="#242326"/>
</svg>
